# xmcd
#
# Track frame offsets:
#	150
#	20252
#	32929
#	45606
#	65033
#
# Disc length: 1031 seconds
#
# Revision: 0
# Processed by: cddbd v1.5.2PL0 Copyright (c) Steve Scherf et al.
# Submitted via: EasyCDDAExtractor 10.5.1.1
#
DISCID=3e040505
DTITLE=Lost Generation Bluegrass Band - Live Demo
DYEAR=2008
DGENRE=Bluegrass
TTITLE0=I'm Gone
TTITLE1=Love Please Come Home
TTITLE2=Cripple Creek
TTITLE3=Free Born Man
TTITLE4=Tell it to Me
EXTD=
EXTT0=
EXTT1=
EXTT2=
EXTT3=
EXTT4=
PLAYORDER=
